<svg x="0" y="0" width="700" height="350" viewBox="0 0 700 350" xmlns="http://www.w3.org/2000/svg" xmlns:xlink="http://www.w3.org/1999/xlink" xmlns:fi="http://pattern.flaticon.com/"><rect x="0px" y="0px" width="100%" height="100%" opacity="1" fill="#9452a5"/><defs><g transform="matrix(0.08016543090343475 0.0145755335688591 -0.0145755335688591 0.08016543090343475 211.2584228515625 239.2621612548828)" id="L1_0"><path d="M199.44,101.424c-7.536,5.232-17.84,12.392-17.84,26.576c0,4.418,3.582,8,8,8s8-3.582,8-8c0-5.296,3.2-8,10.96-13.432     c7.536-5.232,17.84-12.392,17.84-26.576c0-14.184-10.304-21.344-17.84-26.576C200.8,56,197.6,53.272,197.6,48     c0-5.272,3.2-8,10.96-13.424C216.088,29.336,226.4,22.184,226.4,8c0-4.418-3.582-8-8-8s-8,3.582-8,8c0,5.288-3.2,8-10.96,13.424     C191.904,26.648,181.6,33.8,181.6,48s10.304,21.344,17.84,26.568C207.2,80,210.4,82.696,210.4,88S207.2,96,199.44,101.424z"/><path d="M263.448,105.44c-8.643,4.326-14.341,12.915-14.968,22.56c0,4.418,3.582,8,8,8c4.418,0,8-3.582,8-8     c0-3.48,2.216-5.344,8.08-9.408c8.65-4.334,14.346-12.937,14.96-22.592c-0.619-9.649-6.315-18.245-14.96-22.576     c-5.864-4.08-8.08-5.952-8.08-9.44c0-3.488,2.216-5.36,8.08-9.44c8.636-4.326,14.33-12.906,14.96-22.544c0-4.418-3.582-8-8-8     s-8,3.582-8,8c0,3.496-2.216,5.36-8.08,9.44c-8.64,4.328-14.335,12.916-14.96,22.56c0.617,9.652,6.313,18.251,14.96,22.584     c5.864,4.072,8.08,5.944,8.08,9.432S269.304,101.376,263.448,105.44z"/><path d="M135.448,105.44c-8.643,4.326-14.341,12.915-14.968,22.56c0,4.418,3.582,8,8,8s8-3.582,8-8     c0-3.48,2.216-5.344,8.08-9.408c8.65-4.334,14.346-12.937,14.96-22.592c-0.619-9.649-6.315-18.245-14.96-22.576     c-5.864-4.08-8.08-5.952-8.08-9.44c0-3.488,2.216-5.36,8.08-9.44c8.636-4.326,14.33-12.906,14.96-22.544c0-4.418-3.582-8-8-8     s-8,3.582-8,8c0,3.496-2.216,5.36-8.08,9.44c-8.64,4.328-14.335,12.916-14.96,22.56c0.617,9.652,6.313,18.251,14.96,22.584     c5.864,4.072,8.08,5.944,8.08,9.432S141.304,101.376,135.448,105.44z"/><path d="M372,152L372,152H37.52c-4.2-0.011-7.693,3.227-8,7.416C28.52,173.512,28,188.512,28,204     c0,108.544,25.6,207.88,70.208,272.544c1.495,2.166,3.96,3.459,6.592,3.456h198.4c2.632,0.003,5.097-1.29,6.592-3.456     c28.392-41.12,49.888-99.416,61.056-164.616c0.384,0,0.76,0.072,1.152,0.072c44.183,0,80-35.817,80-80     C452,187.817,416.183,152,372,152z M356.344,302.256C346.216,366.248,325.896,423.464,298.96,464H109.04     C68.256,402.648,44,305.896,44,204c0-12.408,0.344-24.48,1.016-36h317.88c0.176,3.04,0.352,6.08,0.48,9.192     c0.096,2.112,0.208,4.184,0.272,6.328C363.864,190.232,364,197.048,364,204C364.046,236.903,361.486,269.758,356.344,302.256z      M373.488,296L373.488,296c0.432-3,0.752-6.056,1.144-9.072c0.424-3.312,0.872-6.6,1.248-9.936     c0.544-4.8,0.992-9.704,1.432-14.584c0.28-3.16,0.6-6.304,0.8-9.48c0.408-5.416,0.68-10.864,0.952-16.32     c0.128-2.68,0.32-5.336,0.424-8C379.829,220.427,380,212.224,380,204c0-7.064-0.144-13.976-0.352-20.8     c-0.072-2.088-0.176-4.112-0.256-6.176c-0.12-2.88-0.2-5.816-0.36-8.64c35.142,3.796,60.552,35.362,56.756,70.503     C432.332,270.88,405.659,295.331,373.488,296z"/></g><g transform="matrix(0.4307596683502197 -0.15580667555332184 0.15580667555332184 0.4307596683502197 21.762939453125 -3.0629560947418213)" id="L1_2"><path d="m108.917 10.75h-89.834a1.75 1.75 0 0 0 -1.75 1.75v55.75a1.75 1.75 0 0 0 1.75 1.75h89.834a1.75 1.75 0 0 0 1.75-1.75v-55.75a1.75 1.75 0 0 0 -1.75-1.75zm-1.75 55.75h-86.334v-52.25h86.334z"/><path d="m123.225 112.2-6.558-38.1v-67.6a1.75 1.75 0 0 0 -1.75-1.75h-101.834a1.75 1.75 0 0 0 -1.75 1.75v67.6l-6.558 38.1a1.734 1.734 0 0 0 -.025.3v9a1.75 1.75 0 0 0 1.75 1.75h115a1.75 1.75 0 0 0 1.75-1.75v-9a1.734 1.734 0 0 0 -.025-.3zm-108.667-36.2h98.884l5.981 34.75h-110.846zm.275-67.75h98.334v64.25h-98.334zm-6.583 111.5v-5.5h111.5v5.5z"/><path d="m26.417 85.918h6a1.75 1.75 0 0 0 0-3.5h-6a1.75 1.75 0 0 0 0 3.5z"/><path d="m40.25 85.918h6a1.75 1.75 0 0 0 0-3.5h-6a1.75 1.75 0 0 0 0 3.5z"/><path d="m54.083 85.918h6a1.75 1.75 0 0 0 0-3.5h-6a1.75 1.75 0 0 0 0 3.5z"/><path d="m67.917 85.918h6a1.75 1.75 0 0 0 0-3.5h-6a1.75 1.75 0 0 0 0 3.5z"/><path d="m81.75 85.918h6a1.75 1.75 0 0 0 0-3.5h-6a1.75 1.75 0 0 0 0 3.5z"/><path d="m95.583 85.918h6a1.75 1.75 0 0 0 0-3.5h-6a1.75 1.75 0 0 0 0 3.5z"/><path d="m19.5 95.125h6a1.75 1.75 0 0 0 0-3.5h-6a1.75 1.75 0 0 0 0 3.5z"/><path d="m39.333 91.625h-6a1.75 1.75 0 0 0 0 3.5h6a1.75 1.75 0 0 0 0-3.5z"/><path d="m47.167 95.125h6a1.75 1.75 0 0 0 0-3.5h-6a1.75 1.75 0 0 0 0 3.5z"/><path d="m67 95.125a1.75 1.75 0 0 0 0-3.5h-6a1.75 1.75 0 0 0 0 3.5z"/><path d="m80.833 91.625h-6a1.75 1.75 0 0 0 0 3.5h6a1.75 1.75 0 0 0 0-3.5z"/><path d="m94.667 91.625h-6a1.75 1.75 0 0 0 0 3.5h6a1.75 1.75 0 0 0 0-3.5z"/><path d="m100.75 93.375a1.75 1.75 0 0 0 1.75 1.75h6a1.75 1.75 0 0 0 0-3.5h-6a1.75 1.75 0 0 0 -1.75 1.75z"/><path d="m19.5 104.332h6a1.75 1.75 0 0 0 0-3.5h-6a1.75 1.75 0 0 0 0 3.5z"/><path d="m39.333 100.832h-6a1.75 1.75 0 0 0 0 3.5h6a1.75 1.75 0 0 0 0-3.5z"/><path d="m80.833 100.832h-33.666a1.75 1.75 0 0 0 0 3.5h33.666a1.75 1.75 0 0 0 0-3.5z"/><path d="m94.667 100.832h-6a1.75 1.75 0 0 0 0 3.5h6a1.75 1.75 0 0 0 0-3.5z"/><path d="m108.5 100.832h-6a1.75 1.75 0 0 0 0 3.5h6a1.75 1.75 0 0 0 0-3.5z"/></g><g transform="matrix(0.7151477336883545 -0.16253356635570526 0.16253356635570526 0.7151477336883545 71.25943756103516 119.86725616455078)" id="L1_12"><path d="m59.4 49.809a1 1 0 0 1 -.732-1.682l2.282-2.451a1 1 0 1 1 1.464 1.363l-2.283 2.451a1 1 0 0 1 -.731.319z"/><path d="m47.221 49.809a1 1 0 0 1 -.732-1.682l2.282-2.451a1 1 0 1 1 1.464 1.363l-2.282 2.451a1 1 0 0 1 -.732.319z"/><path d="m22.866 49.809a1 1 0 0 1 -.732-1.682l2.282-2.451a1 1 0 0 1 1.464 1.363l-2.28 2.451a1 1 0 0 1 -.734.319z"/><path d="m10.688 49.809a1 1 0 0 1 -.732-1.682l2.282-2.451a1 1 0 0 1 1.462 1.364l-2.28 2.45a1 1 0 0 1 -.732.319z"/><path d="m64.038 57.372a1 1 0 0 1 -.732-1.682l2.282-2.451a1 1 0 0 1 1.464 1.361l-2.282 2.454a1 1 0 0 1 -.732.318z"/><path d="m51.86 57.372a1 1 0 0 1 -.732-1.682l2.282-2.45a1 1 0 0 1 1.464 1.36l-2.282 2.451a1 1 0 0 1 -.732.321z"/><path d="m15.327 57.372a1 1 0 0 1 -.727-1.682l2.282-2.451a1 1 0 0 1 1.459 1.361l-2.282 2.451a1 1 0 0 1 -.732.321z"/><path d="m56.391 64.936a1 1 0 0 1 -.732-1.682l2.282-2.454a1 1 0 1 1 1.459 1.367l-2.282 2.451a1 1 0 0 1 -.727.318z"/><path d="m44.213 64.936a1 1 0 0 1 -.732-1.682l2.282-2.454a1 1 0 1 1 1.464 1.363l-2.282 2.451a1 1 0 0 1 -.732.322z"/><path d="m19.858 64.936a1 1 0 0 1 -.732-1.682l2.282-2.454a1 1 0 0 1 1.464 1.363l-2.282 2.454a1 1 0 0 1 -.732.319z"/><path d="m7.68 64.936a1 1 0 0 1 -.732-1.682l2.282-2.454a1 1 0 0 1 1.464 1.363l-2.282 2.454a1 1 0 0 1 -.732.319z"/><path d="m57.159 38.035h-40.318c-6.2 0-11.24-5.32-11.24-11.86a11.636 11.636 0 0 1 10.389-11.827 9.181 9.181 0 0 1 -.148-1.65 8.5 8.5 0 0 1 8.258-8.698 8.106 8.106 0 0 1 6.34 3.126 12.734 12.734 0 0 1 10.16-5.126c6.921 0 12.6 5.711 13.042 12.9a10.659 10.659 0 0 1 3.514-.59c6.2 0 11.24 5.321 11.24 11.861s-5.04 11.864-11.237 11.864zm-40.318-21.721c-5.1 0-9.24 4.423-9.24 9.861s4.145 9.86 9.24 9.86h40.318c5.1 0 9.24-4.423 9.24-9.86s-4.145-9.861-9.24-9.861a8.719 8.719 0 0 0 -4.042.99 1 1 0 0 1 -1.458-.937c.009-.186.014-.376.014-.567-.001-6.507-4.966-11.8-11.073-11.8a10.862 10.862 0 0 0 -9.319 5.441.98.98 0 0 1 -.884.485 1 1 0 0 1 -.857-.531 6.214 6.214 0 0 0 -5.44-3.395 6.5 6.5 0 0 0 -6.261 6.7 7.063 7.063 0 0 0 .38 2.3 1 1 0 0 1 -.142.92.967.967 0 0 1 -.838.4c-.146-.002-.271-.006-.398-.006z"/><path d="m29.809 72a1 1 0 0 1 -.978-1.208l2.58-12.126h-3.211a1 1 0 0 1 -.946-1.323l5.045-14.8a1 1 0 0 1 .946-.677h9.205a1 1 0 0 1 .9 1.438l-4.293 8.823h3.393a1 1 0 0 1 .816 1.578l-12.64 17.873a1 1 0 0 1 -.817.422zm-.209-15.334h3.051a1 1 0 0 1 .978 1.208l-1.829 8.582 8.72-12.329h-3.062a1 1 0 0 1 -.9-1.437l4.293-8.823h-6.892z"/></g><g transform="matrix(0.10648974031209946 0 0 0.10648974031209946 220.73854064941406 67.7386245727539)" id="L1_13"><path d="M276,190c-5.52,0-10,4.48-10,10s4.48,10,10,10c5.52,0,10-4.48,10-10S281.52,190,276,190z"/><path d="M236,190c-5.52,0-10,4.48-10,10s4.48,10,10,10s10-4.48,10-10S241.52,190,236,190z"/><path d="M212.75,110h-13.5c-18.334,0-33.25,14.916-33.25,33.25v4.5c0,19.289,15.851,33.279,33.14,33.279    c8.254,0,12.654-2.762,24.126-6.24C236.875,170.262,246,157.535,246,143.25C246,124.916,231.084,110,212.75,110z M216.954,155.811    c-0.001,0.001-0.003,0.001-0.004,0.002l-13.512,4.501c-8.605,2.867-17.437-3.53-17.437-12.563v-4.501H186    c0-7.306,5.944-13.25,13.25-13.25h13.5c7.306,0,13.25,5.944,13.25,13.25C226,148.841,222.443,153.986,216.954,155.811z"/><path d="M312.75,110h-13.5c-18.376,0-33.25,14.87-33.25,33.25c0,14.322,9.131,26.995,22.73,31.537l13.508,4.499    C323.734,186.454,346,170.518,346,147.75v-4.5C346,124.916,331.084,110,312.75,110z M326,147.75    c0,9.053-8.849,15.425-17.437,12.563c-0.001-0.001-0.002-0.001-0.003-0.001l-13.503-4.497c-5.417-1.811-9.058-6.859-9.058-12.565    C286,135.926,291.926,130,299.25,130h13.5c7.306,0,13.25,5.944,13.25,13.25V147.75z"/><path d="M433.419,392.83c-13.623-2.563-29.964,1.563-39.771,15.521L332.158,382l61.589-26.395    C401.139,365.799,412.963,372,426,372c22.056,0,40-17.944,40-40c0-14.571-8.021-27.751-20.358-34.721    C448.878,273.508,430.249,252,406,252c-26.769,0-45.317,25.777-38.658,49.645l-111.341,47.716l-111.438-47.757    C151.335,276.382,131.828,252,106,252c-24.272,0-42.881,21.537-39.641,45.279c-31.36,17.71-25.883,66.727,12.223,73.891    c13.624,2.563,29.962-1.563,39.771-15.521L179.842,382l-61.589,26.395C110.861,398.2,99.037,392,86,392c-22.056,0-40,17.944-40,40    c0,14.572,8.019,27.752,20.359,34.721C63.116,490.488,81.751,512,106,512c26.351,0,45.43-25.361,38.659-49.645l111.34-47.716    l111.438,47.757C360.669,487.596,380.152,512,406,512c24.283,0,42.875-21.535,39.642-45.279    C476.982,449.017,471.549,399.999,433.419,392.83z M117.839,333.669c-5.177-2.221-11.2,0.281-13.256,5.561    c-4.417,11.332-14.777,13.699-22.306,12.285c-21.492-4.042-21.414-33.3-1.467-38.713c5.765-1.565,8.886-7.812,6.666-13.365    C82.109,286.027,92.11,272,106,272c14.414,0,25.444,15.462,16.953,29.819c-3.077,5.203-0.864,11.912,4.668,14.282l102.993,44.139    l-25.386,10.879L117.839,333.669z M127.621,447.898c-5.539,2.374-7.745,9.09-4.663,14.291C131.5,476.6,120.295,492,106,492    c-13.867,0-23.901-14.004-18.525-27.437c2.218-5.548-0.896-11.799-6.666-13.365C72.09,448.833,66,440.938,66,432    c0-11.028,8.972-20,20-20c8.263,0,15.557,5.014,18.583,12.772c2.052,5.263,8.059,7.786,13.255,5.559L384.38,316.102    c5.539-2.374,7.745-9.09,4.663-14.291C380.498,287.402,391.704,272,406,272c13.893,0,23.892,14.029,18.525,27.435    c-2.22,5.546,0.894,11.8,6.665,13.367C439.91,315.168,446,323.063,446,332c0,11.028-8.972,20-20,20    c-8.263,0-15.558-5.014-18.584-12.773c-2.051-5.261-8.057-7.784-13.256-5.558l-91.33,39.14L127.621,447.898z M431.191,451.198    c-2.754,0.748-5.057,2.636-6.33,5.189c-1.273,2.553-1.395,5.528-0.335,8.178C429.882,477.946,419.92,492,406,492    c-14.415,0-25.445-15.462-16.952-29.819c3.078-5.205,0.861-11.913-4.668-14.282L281.386,403.76l25.385-10.879l87.389,37.45    c5.178,2.221,11.198-0.28,13.257-5.56c4.416-11.332,14.774-13.701,22.307-12.286C451.216,416.527,451.139,445.785,431.191,451.198    z"/><path d="M386,110C386,38.045,327.919,0,256,0c-71.979,0-130,38.097-130,110c0,15.81,2.936,39.238,8.427,55.604    C129.013,172.575,126,181.162,126,190c0,26.409,25.752,45.827,51.044,38.321l6.619,0.006c1.491,1.736,2.337,3.974,2.337,6.333V266    c0,16.542,13.458,30,30,30h80c16.542,0,30-13.458,30-30v-32.13c0-2.003,0.72-3.892,1.994-5.364l7.712,0.012    C360.851,235.434,386,216.177,386,190c0-8.839-3.013-17.425-8.427-24.396C383.065,149.238,386,125.81,386,110z M359.333,175.237    C363.632,179.125,366,184.368,366,190c0,13.357-13.099,22.918-25.912,18.964c-0.95-0.293-1.938-0.442-2.933-0.444    c-10.986,0.35-14.105-0.992-18.094,1.55c-8.178,5.218-13.061,14.116-13.061,23.8V266c0,5.514-4.486,10-10,10h-10v-36    c0-5.522-4.478-10-10-10c-5.522,0-10,4.478-10,10v36h-20v-36c0-5.522-4.478-10-10-10c-5.523,0-10,4.478-10,10v36h-10    c-5.514,0-10-4.486-10-10v-31.34c0-15.288-11.736-26.323-18.652-26.33c-0.143,0-11.939-0.01-11.838-0.01    c-4.119,0-7.312,3.425-15.861,0.505c-0.148-0.05-0.296-0.097-0.446-0.14C151.299,205.808,146,198.318,146,190    c0-5.632,2.368-10.875,6.667-14.763c3.185-2.88,4.175-7.47,2.462-11.407C149.415,150.699,146,126.148,146,110    c0-66.357,56.823-90,110-90c53.178,0,110,23.643,110,90c0,16.148-3.415,40.699-9.129,53.83    C355.157,167.767,356.148,172.357,359.333,175.237z"/></g><g transform="matrix(0.07831411808729172 0.01118773128837347 -0.01118773128837347 0.07831411808729172 298.74371337890625 177.8380889892578)" id="L1_16"><path d="m212.704 137.231c22.279 0 40.405-18.125 40.405-40.404s-18.126-40.405-40.405-40.405-40.404 18.126-40.404 40.405 18.125 40.404 40.404 40.404zm0-65.809c14.009 0 25.405 11.396 25.405 25.405 0 14.008-11.396 25.404-25.405 25.404-14.008 0-25.404-11.396-25.404-25.404s11.396-25.405 25.404-25.405z"/><path d="m197.84 437.005c25.496 0 46.239-20.743 46.239-46.239s-20.743-46.239-46.239-46.239-46.239 20.743-46.239 46.239 20.743 46.239 46.239 46.239zm0-77.478c17.226 0 31.239 14.014 31.239 31.239s-14.014 31.239-31.239 31.239-31.239-14.014-31.239-31.239 14.013-31.239 31.239-31.239z"/><path d="m131.618 131.633c-27.031 0-49.022 21.991-49.022 49.022s21.991 49.022 49.022 49.022 49.022-21.991 49.022-49.022-21.991-49.022-49.022-49.022zm0 83.045c-18.76 0-34.022-15.262-34.022-34.022s15.263-34.022 34.022-34.022 34.022 15.262 34.022 34.022-15.262 34.022-34.022 34.022z"/><path d="m117.578 348.725c27.031 0 49.022-21.991 49.022-49.022s-21.991-49.022-49.022-49.022-49.022 21.991-49.022 49.022 21.991 49.022 49.022 49.022zm0-83.045c18.76 0 34.022 15.262 34.022 34.022s-15.263 34.022-34.022 34.022-34.022-15.262-34.022-34.022 15.262-34.022 34.022-34.022z"/><path d="m166.44 490.454c4.069.749 7.98-1.956 8.725-6.031s-1.956-7.981-6.031-8.725c-28.747-5.249-54.463-19.51-74.368-41.242-57.979-63.299-83.793-131.571-76.726-202.921 15.947-161.023 185.751-241.171 342.349-209.85 21.156 4.231 29.396 21.475 30.021 34.955.619 13.306-5.896 31.005-26.294 37.099-26.355 7.873-47.193 19.364-61.935 34.153-33.788 33.897-36.715 91.09-4.452 129.615 15.931 19.023 26.122 42.091 29.544 66.827-16.984 38.603-34.352 82.319-47.793 122.782-21.595 17.838-48.918 28.647-77.182 30.493-4.134.27-7.266 3.839-6.996 7.973.26 3.967 3.558 7.012 7.478 7.012.164 0 .329-.005.496-.017 24.337-1.589 48.054-9.174 68.674-21.744-4.362 15.196 2.759 31.115 17.081 37.997 15.294 7.35 33.809 1.526 42.155-13.241 14.442-25.553 30.091-56.567 45.252-89.689 1.725-3.766.068-8.217-3.697-9.941-3.768-1.725-8.217-.067-9.941 3.698-14.987 32.743-30.435 63.363-44.672 88.552-4.477 7.921-14.402 11.038-22.6 7.102-7.757-3.728-11.58-12.392-9.09-20.601 19.361-63.866 51.65-141.606 81.229-201.718l40.312 17.256c-9.399 25.614-20.106 52.284-31.031 77.571-1.641 3.803.112 8.216 3.915 9.857 3.809 1.643 8.217-.112 9.858-3.915 20.578-47.754 43.545-107.401 56.948-157.581 4.764-1.711 8.207-5.157 10.032-9.421l6.491-15.164c1.391-3.249 1.698-6.692 1.091-9.93 12.484-7.969 29.958-22.184 39.013-43.338 11.187-26.13 3.753-70.399-1.674-94.461-1.039-4.61-4.255-8.474-8.6-10.334-4.346-1.86-9.36-1.521-13.414.91-21.156 12.685-58.319 37.865-69.504 63.993-9.052 21.145-7.279 43.594-4.43 58.128-2.838 1.841-5.068 4.478-6.429 7.658l-6.491 15.164c-1.84 4.297-1.929 9.151.108 13.761-20.125 32.979-40.105 73.005-56.222 108.123-5.661-19.542-15.271-37.701-28.41-53.391-12.581-15.023-18.96-32.631-18.96-52.336 0-42.524 26.29-71.939 78.14-87.429 23.613-7.054 38.13-27.531 36.985-52.167-.947-20.376-14.321-43.419-42.064-48.968-165.082-33.018-343.348 52.774-360.219 223.079-7.505 75.774 19.61 147.953 80.593 214.531 22.133 24.164 50.742 40.025 82.735 45.866zm238.926-287.359c9.829 4.207 17.333 7.42 27.162 11.627-4.903 18.033-11.545 38.989-19.458 61.388l-38.69-16.562c10.748-21.191 21.325-40.462 30.986-56.453zm45.036-17.404-6.491 15.164c-.525 1.224-1.896 1.612-2.925 1.171l-32.273-13.815c-1.046-.448-1.689-1.714-1.171-2.924l6.491-15.165c.506-1.179 1.844-1.635 2.927-1.17l32.271 13.814c1.04.446 1.68 1.736 1.171 2.925zm-25.51-81.354c3.284-7.672 16.013-28.554 63.163-56.873 12.061 53.667 5.734 77.286 2.45 84.959-7.744 18.092-23.322 30.375-34.144 37.139-.401-.211-.812-.407-1.229-.585l-32.272-13.815h-.001c-.417-.178-.841-.34-1.271-.484-2.574-12.501-4.439-32.251 3.304-50.341z"/></g><g transform="matrix(0.0883159413933754 -0.025233125314116478 0.025233125314116478 0.0883159413933754 61.37266540527344 230.0901641845703)" id="L1_17"><path d="m8.988281 226.742188h.371094c2.222656-.097657 4.320313-1.074219 5.824219-2.714844 1.507812-1.644532 2.296875-3.816406 2.199218-6.042969-.460937-10.691406-.605468-20.753906-.527343-30.355469 0-.070312.082031-.128906.109375-.203125 2.945312-8.40625 9.320312-15.164062 17.539062-18.601562 11.441406-3.273438 24.996094 4.929687 34.835938 12.878906 3.675781 13.125 6.890625 21.660156 7.351562 22.878906 1.25 3.238281 4.367188 5.375 7.839844 5.371094 1.027344.003906 2.046875-.1875 3.003906-.5625 4.324219-1.65625 6.488282-6.507813 4.835938-10.835937-3.265625-9.085938-6.066406-18.328126-8.394532-27.699219.355469-.914063.542969-1.886719.554688-2.867188 0-8.050781 2.300781-32.785156 12.253906-40.550781 1.832032-1.429688 4.09375-2.199219 6.421875-2.191406 1.757813 7.328125 4.230469 14.460937 7.386719 21.304687 1.335938 2.683594 4.003906 4.453125 7 4.636719 2.992188.183594 5.859375-1.242188 7.515625-3.742188 1.65625-2.503906 1.851563-5.699218.515625-8.382812-2.472656-5.488281-4.4375-11.1875-5.875-17.03125 6.828125-3.476562 14.710938-4.261719 22.089844-2.199219 5.789062 3.464844 9.519531 9.53125 10.007812 16.257813.269532 1.28125.847656 2.472656 1.675782 3.484375 1.429687 9 3.777343 17.828125 7.007812 26.347656 1.285156 19.695313 1.160156 39.460937-.375 59.140625-11.382812 12.378906-35.546875 16.289062-65.585938 10.273438-13.351562-3.207032-27.433593-.707032-38.863281 6.902343-11.429687 7.605469-19.171875 19.632813-21.371093 33.183594-.664063 3.328125.742187 6.730469 3.5625 8.617187 2.820312 1.886719 6.5 1.894532 9.324218.011719 12.5625-7.816406 28.476563-7.816406 41.042969 0 14.371094 9.601563 27.582031 17.242188 41.472656 17.242188 4.378907-.003907 8.722657-.769531 12.839844-2.257813-10.304687 20.890625-24.675781 33.292969-42.90625 36.929688-39.285156 6.585937-72.566406 32.613281-88.425781 69.152344-13.222656 30.9375-10.398438 66.394531 7.554687 94.847656 2.117188 3.210937 6.148438 4.574218 9.777344 3.304687 3.632813-1.269531 5.9375-4.847656 5.589844-8.675781-.292969-3.453125-6.066407-84.777344 93.640625-100.085938 31.003906-4.097656 58.445312-22.105468 74.550781-48.917968 4.773437 19.261718 2.695313 39.585937-5.878906 57.480468-11.050781 23.097657-35.839844 50.042969-69.3125 50.042969h-.167969c-3.914062-.007812-7.3125 2.695313-8.1875 6.511719-.878906 3.8125.996094 7.726562 4.519531 9.433594 13.640625 6.832031 28.652344 10.480468 43.90625 10.675781 7.671875.035156 15.308594-1.054687 22.664063-3.230469 17.078125-5.550781 32.101562-16.097656 43.125-30.273437 5.695312-7.117188 10.683594-14.769531 14.890625-22.855469 2.652343 18.734375 3.699219 47.839844-10.585938 66.917969-1.902343 2.539062-2.210937 5.933593-.800781 8.773437s4.304688 4.640625 7.472656 4.65625c.402344.003906.800782-.027344 1.195313-.082031 39.964843-7.351563 68.222656-43.277344 65.953125-83.851563-.058594-9.675781-.617188-19.34375-1.679688-28.964843 14.125 8.902343 29.296875 16.019531 45.167969 21.191406 12.496094 4.445313 24.746094 9.5625 36.695313 15.328125 24.902343 11.238281 37.507812 39.292969 29.375 65.375-1.234376 3.890625.503906 8.101562 4.121093 9.988281 3.617188 1.886719 8.066407.898438 10.542969-2.339843 20.859375-27.816407 28.136719-55.917969 21.613281-83.539063-8.074219-34.230469-37.667969-65.65625-83.320312-88.476563-11.496094-6.332031-20.410157-16.496093-25.179688-28.722656 13.917969.992188 27.886719-1.113281 40.890625-6.167968 20.84375-6.949219 42.808594 7.277343 43.050782 7.410156 2.574218 1.699218 5.875 1.851562 8.59375.390625 2.71875-1.457031 4.417968-4.289063 4.425781-7.375-.507813-18.984375-12.882813-35.605469-30.921875-41.539063-8.007813-2.164062-16.242188-3.371094-24.535156-3.589844-25.558594-1.847656-49.765626-3.660156-53.195313-38.335937.5625-13.132813 1.675781-24.96875 2.792969-34.050781 5.789062-11.847656 9.730468-24.511719 11.691406-37.550782.519531-.851562.886719-1.785156 1.082031-2.761718.492188-6.710938 4.21875-12.761719 9.988281-16.21875 7.378907-2.0625 15.265626-1.277344 22.09375 2.199218-1.445312 5.839844-3.410156 11.535157-5.875 17.023438-1.945312 4.125-.238281 9.050781 3.84375 11.089844 4.082032 2.035156 9.042969.441406 11.171876-3.59375 3.160156-6.839844 5.636718-13.976563 7.386718-21.304688 2.324219-.003906 4.582032.769532 6.417969 2.191406 9.957031 7.765626 12.246094 32.5 12.265625 40.550782.019531.984375.214844 1.960937.578125 2.878906-2.328125 9.367188-5.132813 18.613281-8.394531 27.695312-1.65625 4.328126.503906 9.175782 4.828125 10.835938.960937.371094 1.984375.554688 3.011719.546875 3.472656 0 6.585937-2.140625 7.832031-5.378906.46875-1.21875 3.675781-9.746094 7.34375-22.847657 13.605469-10.988281 25.617187-15.503906 34.765625-12.933593 8.273437 3.417969 14.691406 10.214843 17.625 18.675781 0 .066406.078125.117188.101562.183594.085938 9.585937-.066406 19.65625-.527344 30.332031-.097656 2.230469.695313 4.40625 2.203126 6.046875 1.507812 1.644531 3.609374 2.617188 5.835937 2.710938h.371094c4.496093.003906 8.199219-3.539063 8.394531-8.035157 8.585938-197.957031-78.589844-217.683593-82.300781-218.421875-.277344-.015625-.558594-.015625-.839844 0-.273437-.074218-.554687-.128906-.835937-.167968-.285157.039062-.566407.09375-.839844.167968-.570313.046875-1.132813.160156-1.679688.335938-.488281.152344-.960937.347656-1.410156.585937-.964844.53125-1.820312 1.234375-2.519531 2.082031-.265625.335938-.503907.691407-.710938 1.066407-.363281.59375-.648437 1.230469-.839843 1.898437-.050782.183594-.183594.335938-.226563.527344-.042969.195312 0 .410156 0 .613281-.070313.367188-.113281.742188-.136719 1.117188 1.210938 16.546875-4.839844 32.804687-16.574218 44.535156-19.171876 17.230469-49.203126 14.328125-49.664063 14.269531-.566406-.007812-1.128906.050782-1.679687.167969-16.183594-39.753906-50.820313-67.367187-90.96875-67.367187-40.144532 0-74.808594 27.632812-90.96875 67.398437-.742188-.175781-1.503907-.242187-2.265626-.199219-.316406 0-30.441406 3.011719-49.664062-14.269531-11.734375-11.730469-17.789062-27.988281-16.578125-44.535156 0-2.515625-1.125-4.894531-3.070313-6.488281-1.945312-1.617188-4.523437-2.257813-7-1.738282-3.683593.738282-90.851562 20.464844-82.253906 218.421875.191406 4.496094 3.894532 8.039063 8.390625 8.035157zm88.601563 43.375c-11.363282-7.757813-25.359375-10.632813-38.859375-7.988282 7.773437-9.671875 20.574219-13.757812 32.515625-10.375 21.988281 5.675782 45.21875 4.125 66.257812-4.425781-1.296875 8.691406-3.105468 17.292969-5.414062 25.769531-18.878906 17.8125-30.226563 13.234375-54.507813-2.980468zm291.253906-4.617188c6.890625.183594 13.742188 1.113281 20.429688 2.78125 5.640624 1.757812 10.5625 5.289062 14.03125 10.070312-12.648438-4.449218-26.386719-4.742187-39.210938-.839843-21.1875 7.078125-36.019531 7.789062-41.777344 2.03125-.15625-.160157-.375-.21875-.542968-.359375-2.179688-9.578125-3.636719-19.304688-4.347657-29.101563 14.554688 12.675781 35.320313 14.261719 51.367188 15.417969zm97.429688-106.8125c-3.585938-2.722656-7.644532-4.761719-11.96875-6.019531-11.460938-2.722657-23.53125-.878907-33.65625 5.144531 7.972656-38.917969 12.238281-94.441406-13.429688-136.222656l.082031-.691406c17.097657 9.914062 52.257813 41.816406 58.972657 137.789062zm-65.753907-113c9.144531 26.378906 11.804688 54.578125 7.746094 82.203125-2.425781-5.28125-6.023437-9.9375-10.515625-13.621094-3.953125-3.054687-8.679688-4.941406-13.648438-5.457031 1.769532-13.644531 1.421876-27.480469-1.023437-41.019531.90625-.730469 1.855469-1.332031 2.738281-2.121094 6.199219-5.601563 11.203125-12.398437 14.703125-19.984375zm-69.75 38.648438c12.617188.019531 25.113281-2.457032 36.765625-7.292969 1.125 9.359375 1.125 18.820312 0 28.175781-10.179687-4.28125-21.605468-4.542969-31.972656-.738281-1.023438.554687-2.015625 1.164062-2.972656 1.832031-.613282-7.425781-1.847656-14.789062-3.691406-22.007812.628906.015624 1.191406.03125 1.871093.03125zm-98.371093-67.429688c46.28125 0 83.933593 45.179688 83.933593 100.71875.101563 18.3125-4.152343 36.386719-12.414062 52.726562-.417969.863282-.6875 1.789063-.796875 2.738282 0 .101562-.074219.175781-.082032.277344-.90625 7.367187-1.679687 15.570312-2.34375 24.207031-.722656 1.207031-1.117187 2.578125-1.148437 3.984375 0 3.226562.175781 6.203125.410156 9.101562-2.097656 50.636719 4.761719 111.949219 46.164063 132.707032 41.128906 20.554687 67.578125 48.019531 74.5 77.320312 3.070312 13.289062 2.222656 27.179688-2.433594 39.996094-4.761719-21.441406-19.359375-39.382813-39.382812-48.40625-12.484376-6.003906-25.285157-11.328125-38.347657-15.949219-22.914062-8.558594-42.722656-16.0625-54.558593-31.632813-2.695313-16.726562-6.085938-33.773437-9.457032-50.5625-7.554687-37.855468-14.765625-73.609374-10.667968-94.105468.730468-4.464844-2.203126-8.707032-6.636719-9.59375-4.4375-.886719-8.777344 1.898437-9.816407 6.300781-4.757812 23.796875 2.726563 61.148437 10.667969 100.722656 3.5 17.449219 7.050781 35.195313 9.753907 52.417969v.234375c2.800781 16.417969 4.34375 33.027344 4.625 49.679687 0 36.007813-18.558594 53.003907-33.421876 60.851563 11.992188-35.25.132813-77.804687-.480468-79.945313-.339844-1.15625-.929688-2.222656-1.730469-3.125 2.792969-8.445312 4.960937-17.089843 6.480469-25.859374 2.699218-15.160157 3.28125-30.625 1.730468-45.945313-1.683593-10.769531-4.5625-21.316406-8.585937-31.449219-3.789063-9.363281-6.425781-19.152344-7.855469-29.152344-1.085937-12.417968-.199218-24.929687 2.625-37.070312 1.773438-8.003906 4.152344-15.859375 7.109375-23.503906 1.578125-4.308594-.597656-9.089844-4.882812-10.726563-4.289063-1.640625-9.097657.46875-10.796875 4.734375-3.261719 8.445313-5.878906 17.125-7.828125 25.96875-3.203125 13.863282-4.191407 28.148438-2.921875 42.320313 1.539062 11.347656 4.472656 22.464843 8.738281 33.09375 3.585937 8.960937 6.175781 18.289062 7.730469 27.816406 1.367187 13.734375.820312 27.59375-1.621094 41.179687-3.804688 24.296876-13.675781 47.242188-28.707031 66.710938-8.949219 11.511719-21.097657 20.132812-34.925781 24.777344-8.097657 2.335937-16.574219 3.058594-24.953126 2.132812 22.761719-10.859375 40.992188-29.359375 51.519532-52.277344 11.1875-23.367187 12.765625-46.289062 5.28125-76.628906-1.132813-4.644531-2.199219-9.367187-3.125-14.269531-1.675782-8.042969-2.996094-16.601563-4.070313-26.1875-3.054687-30.15625-2.773437-60.558594.839844-90.648437.484375-3.015626-.707031-6.058594-3.113281-7.9375-2.40625-1.882813-5.640625-2.3125-8.453125-1.121094-2.8125 1.195312-4.753907 3.820312-5.070313 6.859375-3.816406 31.4375-4.097656 63.203125-.839844 94.703125 1.015626 9.054687 2.300782 17.195312 3.8125 24.875-11.386718 31.019531-38.898437 53.269531-71.613281 57.917968-71.476562 11.027344-95.820312 53.230469-103.96875 84.066407-3.054687-16.976563-1.148437-34.476563 5.488281-50.402344 13.78125-31.320313 42.46875-53.550781 76.238282-59.074219 30.667968-6.140625 52.289062-30.214844 64.34375-71.402344.710937-1.222656 1.097656-2.613281 1.117187-4.027343 4.152344-15.597657 6.90625-31.53125 8.226563-47.617188 1.863281-21.691406 2.070312-43.492187.621094-65.214843 0-1.066407-.203126-2.125-.597657-3.117188-5.457031-13.839844-8.253906-28.589844-8.242187-43.46875 0-55.539062 37.652344-100.71875 83.933594-100.71875zm-96.523438 67.390625c-1.867188 7.339844-3.109375 14.824219-3.710938 22.375-1.125-.8125-2.308593-1.546875-3.542968-2.191406-10.363282-3.804688-21.789063-3.542969-31.96875.738281-1.125-9.335938-1.125-18.773438 0-28.109375 12.425781 5.117187 25.789062 7.566406 39.222656 7.1875zm-57.496094-18.667969c.890625.789063 1.8125 1.476563 2.726563 2.207032-2.425781 13.511718-2.765625 27.3125-1.003907 40.925781-4.96875.515625-9.695312 2.410156-13.648437 5.464843-4.496094 3.695313-8.089844 8.371094-10.507813 13.664063-4.042968-27.601563-1.386718-55.769531 7.746094-82.128906 3.511719 7.539062 8.507813 14.296875 14.6875 19.867187zm-21.5625-44.703125c0 .25.109375.46875.132813.710938-25.625 41.777343-21.367188 97.257812-13.402344 136.167969-10.117187-6.03125-22.1875-7.875-33.640625-5.136719-4.335938 1.253906-8.402344 3.300781-11.996094 6.035156 6.707032-95.894531 41.816406-127.832031 58.90625-137.777344zm0 0"/><path d="m198.285156 150.359375c4.242188 2.148437 8.929688 3.269531 13.683594 3.265625 11.117188-.765625 21.597656-5.457031 29.578125-13.234375 1.734375-1.722656 2.632813-4.113281 2.460937-6.554687-.171874-2.4375-1.398437-4.679688-3.359374-6.136719l-33.574219-25.183594c-1.84375-1.382813-4.179688-1.945313-6.453125-1.558594-2.273438.390625-4.285156 1.699219-5.566406 3.617188-1.214844 1.828125-11.75 18.230469-8.074219 32.164062 1.574219 5.984375 5.710937 10.972657 11.304687 13.621094zm6.640625-28.429687 16.46875 12.347656c-4.734375 2.824218-10.53125 3.21875-15.605469 1.058594-1.269531-.480469-2.226562-1.542969-2.574218-2.855469-.457032-3.621094.136718-7.296875 1.710937-10.589844zm0 0"/><path d="m292.832031 153.582031c4.753907.003907 9.441407-1.113281 13.679688-3.265625 5.582031-2.640625 9.71875-7.609375 11.304687-13.578125 3.703125-13.933593-6.855468-30.335937-8.074218-32.164062-1.277344-1.917969-3.292969-3.226563-5.566407-3.617188-2.273437-.386719-4.605469.175781-6.453125 1.558594l-33.574218 25.183594c-1.945313 1.457031-3.160157 3.691406-3.332032 6.117187-.175781 2.429688.714844 4.808594 2.433594 6.53125 7.980469 7.777344 18.464844 12.46875 29.582031 13.234375zm7.03125-31.683593c1.570313 3.269531 2.167969 6.921874 1.730469 10.523437-.34375 1.320313-1.308594 2.390625-2.585938 2.871094-5.070312 2.160156-10.871093 1.769531-15.601562-1.054688zm0 0"/></g><g transform="matrix(0.07513821870088577 0.02209947444498539 -0.02209947444498539 0.07513821870088577 141.42208862304688 301.1071472167969)" id="L1_18"><path d="M505.513,97.978l-20.44-7.87c-29.731-11.447-56.173-30.479-76.466-55.039C390.191,12.782,363.048,0,334.138,0    c-26.265,0-51.73,10.895-69.868,29.892l-8.35,8.745l-8.35-8.745C229.433,10.895,203.967,0,177.703,0    c-28.91,0-56.053,12.782-74.469,35.069c-20.293,24.56-46.735,43.592-76.466,55.039l-20.44,7.87    c-8.692,3.355-8.211,16.252,0.768,18.919c0.211,0.062,0.426,0.115,0.642,0.163c0.094,0.021,0.187,0.045,0.282,0.063    c0.2,0.039,0.403,0.067,0.607,0.093c0.112,0.015,0.222,0.034,0.335,0.045c0.189,0.018,0.381,0.024,0.573,0.031    c0.125,0.005,0.249,0.016,0.375,0.017c0.004,0,0.007,0,0.011,0c15.563,0,32.728,14.249,54.459,32.288    c9.806,8.14,20.92,17.366,33.237,26.328c4.466,3.25,10.721,2.264,13.97-2.203c3.25-4.466,2.264-10.72-2.202-13.97    c-11.802-8.586-22.188-17.208-32.23-25.544c-11.559-9.595-21.987-18.245-32.13-24.759c30.014-5.461,75.116-9.825,108.994,3.733    c47.149,18.872,83.135,20.951,96.7,20.951c0.078,0,0.158,0,0.236,0c13.568,0,49.556-2.08,96.7-20.951    c36.986-14.804,87.352-8.245,116.854-2.217c-9.42,6.314-19.137,14.374-29.82,23.242c-33.848,28.098-75.973,63.066-144.666,72.073    c-5.477,0.718-9.333,5.739-8.615,11.215c0.66,5.035,4.958,8.701,9.902,8.701c0.433,0,0.872-0.028,1.313-0.086    c74.423-9.758,120.903-48.342,154.841-76.514c21.731-18.04,38.896-32.288,54.459-32.288c4.818,0,8.951-3.436,9.832-8.173    C512.632,104.4,510.01,99.708,505.513,97.978z M340.222,94.616c-38.794,15.527-69.572,18.799-84.243,19.385    C255.918,114,255.857,114,255.795,114h-9.92c-0.056,0-0.111,0-0.167,0.001c-14.677-0.584-45.459-3.855-84.26-19.386    c-25.638-10.262-55.927-11.668-82.871-9.721c14.896-10.503,28.406-22.965,40.074-37.086C133.254,30.136,154.778,20,177.703,20    c20.827,0,41.021,8.64,55.403,23.703l15.582,16.32c1.887,1.976,4.5,3.094,7.232,3.094s5.346-1.118,7.232-3.094l15.582-16.32    C293.118,28.64,313.311,20,334.138,20c22.925,0,44.448,10.136,59.051,27.808c12.065,14.602,26.098,27.43,41.597,38.151    C405.197,82.724,369.647,82.838,340.222,94.616z"/><path d="M256.045,208.458h-0.25c-5.522,0-9.961,4.477-9.961,10c0,5.523,4.517,10,10.039,10h0.172c5.522,0,10-4.477,10-10    C266.045,212.935,261.568,208.458,256.045,208.458z"/><path d="M237.92,320.101V276c0-8.183-4.945-15.225-12-18.318v-61.791c0-11.079-6.066-21.211-15.831-26.443l-32-17.146    c-9.387-5.029-20.445-4.766-29.579,0.704c-9.136,5.469-14.59,15.092-14.59,25.739v78.937c-7.055,3.093-12,10.135-12,18.318v44.101    c-10.093,1.007-18,9.546-18,19.899v142c0,16.542,13.458,30,30,30h92c16.542,0,30-13.458,30-30V340    C255.92,329.647,248.013,321.108,237.92,320.101z M153.919,178.744L153.919,178.744c0.001-5.116,3.402-7.704,4.864-8.58    c1.464-0.875,5.351-2.65,9.86-0.235l32,17.146c3.255,1.744,5.276,5.122,5.276,8.814V256h-52V178.744z M141.92,276h2h72h2v44h-76    V276z M235.92,482c0,5.514-4.486,10-10,10h-18v-76c0-5.523-4.478-10-10-10c-5.522,0-10,4.477-10,10v76h-54    c-5.514,0-10-4.486-10-10V340h112V482z"/><path d="M204.989,370.93c-1.859-1.86-4.439-2.93-7.069-2.93s-5.21,1.07-7.07,2.93s-2.93,4.44-2.93,7.07s1.069,5.21,2.93,7.07    c1.861,1.86,4.44,2.93,7.07,2.93s5.21-1.07,7.069-2.93c1.86-1.86,2.931-4.44,2.931-7.07S206.85,372.79,204.989,370.93z"/></g><path d="M311.175,115.775c-1.355-10.186-1.546-27.73,7.915-33.621c0.169-0.108,0.295-0.264,0.443-0.398    c7.735-2.474,13.088-5.946,8.886-10.618l-114.102-34.38L29.56,62.445c0,0-21.157,3.024-19.267,35.894    c1.026,17.89,6.637,26.676,11.544,31l-15.161,4.569c-4.208,4.672,1.144,8.145,8.88,10.615c0.147,0.138,0.271,0.293,0.443,0.401    c9.455,5.896,9.273,23.438,7.913,33.626c-33.967,9.645-21.774,12.788-21.774,12.788l7.451,1.803    c-5.241,4.736-10.446,13.717-9.471,30.75c1.891,32.864,19.269,35.132,19.269,35.132l120.904,39.298l182.49-44.202    c0,0,12.197-3.148-21.779-12.794c-1.366-10.172-1.556-27.712,7.921-33.623c0.174-0.105,0.301-0.264,0.442-0.396    c7.736-2.474,13.084-5.943,8.881-10.615l-7.932-2.395c5.29-3.19,13.236-11.527,14.481-33.183    c0.859-14.896-3.027-23.62-7.525-28.756l15.678-3.794C332.949,128.569,345.146,125.421,311.175,115.775z M158.533,115.354    l30.688-6.307l103.708-21.312l15.451-3.178c-4.937,9.036-4.73,21.402-3.913,29.35c0.179,1.798,0.385,3.44,0.585,4.688    L288.14,122.8l-130.897,32.563L158.533,115.354z M26.71,147.337l15.449,3.178l99.597,20.474l8.701,1.782l0,0l0,0l26.093,5.363    l1.287,40.01L43.303,184.673l-13.263-3.296c0.195-1.25,0.401-2.89,0.588-4.693C31.44,168.742,31.651,156.373,26.71,147.337z     M20.708,96.757c-0.187-8.743,1.371-15.066,4.52-18.28c2.004-2.052,4.369-2.479,5.991-2.479c0.857,0,1.474,0.119,1.516,0.119    l79.607,25.953l39.717,12.949l-1.303,40.289L39.334,124.07l-5.88-1.647c-0.216-0.061-0.509-0.103-0.735-0.113    C32.26,122.277,21.244,121.263,20.708,96.757z M140.579,280.866L23.28,247.98c-0.217-0.063-0.507-0.105-0.733-0.116    c-0.467-0.031-11.488-1.044-12.021-25.544c-0.19-8.754,1.376-15.071,4.519-18.288c2.009-2.052,4.375-2.479,5.994-2.479    c0.859,0,1.474,0.115,1.519,0.115c0,0,0.005,0,0,0l119.316,38.908L140.579,280.866z M294.284,239.459    c0.185,1.804,0.391,3.443,0.591,4.693l-147.812,36.771l1.292-40.01l31.601-6.497l4.667,1.129l17.492-5.685l80.631-16.569    l15.457-3.18C293.261,219.146,293.466,231.517,294.284,239.459z M302.426,185.084c-0.269,0.006-0.538,0.042-0.791,0.122    l-11.148,3.121l-106.148,29.764l-1.298-40.289l34.826-11.359l84.327-27.501c0.011-0.005,4.436-0.988,7.684,2.315    c3.144,3.214,4.704,9.537,4.52,18.28C313.848,184.035,302.827,185.053,302.426,185.084z" transform="matrix(0.11796615272760391 -0.018432211130857468 0.018432211130857468 0.11796615272760391 173.1453857421875 163.3233184814453)" id="L1_20"/><g transform="matrix(0.07364077866077423 0.007126527838408947 -0.007126527838408947 0.07364077866077423 256.97235107421875 323.3235778808594)" id="L1_24"><path d="m66.193 66.193c-42.685 42.687-66.193 99.44-66.193 159.807s23.508 117.12 66.193 159.807c42.687 42.685 99.44 66.193 159.807 66.193h15v-452h-15c-60.367 0-117.12 23.508-159.807 66.193zm-36.193 159.807c0-103.028 79.906-187.745 181-195.432v180.432h-151v15c0 86.477 66.47 157.707 151 165.315v30.117c-101.094-7.687-181-92.404-181-195.432zm89.104 83.981c-15.303-19.436-25.434-43.126-28.283-68.981h120.179v30.674c-34.025 3.017-65.827 16.274-91.896 38.307zm91.896-8.162v59.35c-26.657-2.938-51.018-13.608-70.783-29.716 20.314-16.587 44.701-26.799 70.783-29.634z"/><path d="m91 151h90v30h-90z"/><path d="m376 160c-24.813 0-45 20.187-45 45v45c0 24.813 20.187 45 45 45s45-20.187 45-45v-45c0-24.813-20.187-45-45-45zm15 90c0 8.271-6.729 15-15 15s-15-6.729-15-15v-45c0-8.271 6.729-15 15-15s15 6.729 15 15z"/><path d="m445.807 126.193c-42.687-42.685-99.44-66.193-159.807-66.193h-15v452h15c60.367 0 117.12-23.508 159.807-66.193 42.685-42.687 66.193-99.44 66.193-159.807s-23.508-117.12-66.193-159.807zm-144.807 355.239v-126.432h75v-30h-75v-234.432c101.094 7.687 181 92.404 181 195.432s-79.906 187.745-181 195.432z"/></g><g transform="matrix(0.0984894335269928 -0.0202772356569767 0.0202772356569767 0.0984894335269928 310.3919677734375 273.50238037109375)" id="L1_25"><path d="M240.808,53.284a6.71,6.71,0,0,0,4.913,1.735,219.643,219.643,0,0,1,30.826.725q.328.028.651.029a6.867,6.867,0,0,0,.638-13.7,233.117,233.117,0,0,0-32.758-.769,6.88,6.88,0,0,0-4.27,11.984Z"/><path d="M173.164,70.684a6.829,6.829,0,0,0,2.552-.5,215.013,215.013,0,0,1,29.352-9.372,6.867,6.867,0,0,0-3.225-13.351,228.585,228.585,0,0,0-31.235,9.975,6.868,6.868,0,0,0,2.556,13.243Z"/><path d="M139.231,89.031a6.868,6.868,0,1,0-7.436-11.548,231.436,231.436,0,0,0-26.221,19.655,6.867,6.867,0,1,0,9,10.377A217.73,217.73,0,0,1,139.231,89.031Z"/><path d="M337.925,45.33h0a7.106,7.106,0,1,0,1.282,9.971A7.117,7.117,0,0,0,337.924,45.33Z"/><path d="M355.469,58.882h0a7.11,7.11,0,1,0,2.707,4.723A7.118,7.118,0,0,0,355.468,58.881Z"/><path d="M373.013,72.433h0a7.108,7.108,0,1,0,2.708,4.722A7.082,7.082,0,0,0,373.012,72.433Z"/><path d="M390.563,85.989l0,0a7.109,7.109,0,1,0,1.281,9.972A7.115,7.115,0,0,0,390.558,85.985Z"/><path d="M306.939,480.718a215.864,215.864,0,0,1-30.4,5.076,6.868,6.868,0,0,0,.637,13.705q.323,0,.652-.03a230.435,230.435,0,0,0,32.333-5.4,6.868,6.868,0,0,0-3.227-13.352Z"/><path d="M235.464,485.8a216.214,216.214,0,0,1-30.4-5.075,6.868,6.868,0,0,0-3.226,13.352,230.181,230.181,0,0,0,32.334,5.4c.219.02.435.03.65.03a6.868,6.868,0,0,0,.638-13.7Z"/><path d="M438.7,134.744a6.868,6.868,0,0,0-6.725,10.761A216.87,216.87,0,0,1,448.034,171.8a6.867,6.867,0,1,0,12.2-6.3,230.455,230.455,0,0,0-17.075-27.965A6.824,6.824,0,0,0,438.7,134.744Z"/><path d="M372.761,452.51a215.747,215.747,0,0,1-27.022,14.781,6.868,6.868,0,1,0,5.712,12.493A229.933,229.933,0,0,0,380.2,464.059a6.868,6.868,0,0,0-7.435-11.549Z"/><path d="M435.427,403.15a6.866,6.866,0,0,0-9.644,1.146A217.941,217.941,0,0,1,405.037,427.1a6.868,6.868,0,0,0,9.479,9.941,231.616,231.616,0,0,0,22.057-24.249A6.874,6.874,0,0,0,435.427,403.15Z"/><path d="M469.821,240.029a6.9,6.9,0,0,0,6.791,5.9,7.192,7.192,0,0,0,.976-.069,6.876,6.876,0,0,0,5.83-7.768,229.26,229.26,0,0,0-6.937-32.043,6.867,6.867,0,0,0-13.18,3.864A215.578,215.578,0,0,1,469.821,240.029Z"/><path d="M468.906,337.18a6.87,6.87,0,0,0-8.736,4.245,215.218,215.218,0,0,1-12.149,28.337,6.868,6.868,0,1,0,12.2,6.3,229.119,229.119,0,0,0,12.926-30.151,6.867,6.867,0,0,0-4.244-8.735Z"/><path d="M35.838,235.325a6.865,6.865,0,0,0,8.037-5.453A215.287,215.287,0,0,1,51.832,200.1a6.867,6.867,0,0,0-12.98-4.49,228.989,228.989,0,0,0-8.467,31.675,6.869,6.869,0,0,0,5.453,8.037Z"/><path d="M166.263,467.294a216.4,216.4,0,0,1-27.048-14.8,6.867,6.867,0,0,0-7.437,11.547,230.147,230.147,0,0,0,28.771,15.741,6.792,6.792,0,0,0,2.853.625,6.869,6.869,0,0,0,2.861-13.115Z"/><path d="M42.18,301.512a218.689,218.689,0,0,1-2.17-30.753,6.868,6.868,0,1,0-13.735.01,232.414,232.414,0,0,0,2.308,32.681,6.9,6.9,0,0,0,6.79,5.9,7.207,7.207,0,0,0,.977-.069A6.878,6.878,0,0,0,42.18,301.512Z"/><path d="M478.858,263.9a6.876,6.876,0,0,0-6.868,6.867,218.906,218.906,0,0,1-2.17,30.751,6.868,6.868,0,0,0,5.83,7.768,7.185,7.185,0,0,0,.976.069,6.9,6.9,0,0,0,6.791-5.9,232.685,232.685,0,0,0,2.308-32.688A6.875,6.875,0,0,0,478.858,263.9Z"/><path d="M51.827,341.419a6.867,6.867,0,0,0-12.98,4.491,229.176,229.176,0,0,0,12.918,30.135,6.867,6.867,0,1,0,12.2-6.3A215.466,215.466,0,0,1,51.827,341.419Z"/><path d="M86.2,404.277a6.867,6.867,0,1,0-10.791,8.5,231.718,231.718,0,0,0,22.051,24.245,6.868,6.868,0,0,0,9.48-9.939A217.9,217.9,0,0,1,86.2,404.277Z"/><path d="M85.071,127.6a6.878,6.878,0,0,0-9.644,1.146,230.97,230.97,0,0,0-18.4,27.138,6.87,6.87,0,0,0,5.938,10.308,6.9,6.9,0,0,0,5.95-3.43,216.84,216.84,0,0,1,17.3-25.516A6.879,6.879,0,0,0,85.071,127.6Z"/><path d="M408.393,163.151a10.214,10.214,0,0,0,10.782-3.624,6,6,0,0,0,.965-1.833l9.969-31.043,27.578-17.566a5.976,5.976,0,0,0,1.526-1.393A10.242,10.242,0,0,0,450.754,91.2L418.7,86.914,402.66,74.529l22.03-28.522a9.694,9.694,0,0,0-1.745-13.6l-6.9-5.33a13.427,13.427,0,0,0-16.975.492l-26.911,23.4L329.612,18.105a24.474,24.474,0,0,0-29.921,38.738l42.546,32.863L326.4,121.658a13.425,13.425,0,0,0,3.811,16.545l6.9,5.333a9.622,9.622,0,0,0,5.906,2.023,9.84,9.84,0,0,0,1.255-.081,9.632,9.632,0,0,0,6.437-3.689l22.031-28.523,16.041,12.39,12.3,29.863A10.209,10.209,0,0,0,408.393,163.151ZM399.265,119.6a6,6,0,0,0-1.88-2.463L366.554,93.327a6,6,0,1,0-7.336,9.5l4.024,3.108-20.622,26.7-5.078-3.923a1.394,1.394,0,0,1-.4-1.717L355.173,90.63a6,6,0,0,0-1.708-7.413L307.026,47.346A12.474,12.474,0,0,1,322.277,27.6l46.439,35.87a6,6,0,0,0,7.605-.221l30.621-26.626a1.394,1.394,0,0,1,1.766-.051l5.077,3.921-20.622,26.7-4.024-3.108a6,6,0,1,0-7.335,9.5L412.635,97.4a6,6,0,0,0,2.873,1.2l30.017,4.01-23.69,15.089a6,6,0,0,0-2.489,3.225l-8.56,26.657Z"/><path d="M256,126.809c-79.38,0-143.96,64.58-143.96,143.959S176.62,414.728,256,414.728s143.96-64.58,143.96-143.96S335.38,126.809,256,126.809ZM124.04,270.768c0-71.062,56.465-129.174,126.884-131.852l6.141,37.341a8.84,8.84,0,0,1-3.876,8.822l-23.173,15.174a20.765,20.765,0,0,0-9.048,21.335l3.115,16.312a20.914,20.914,0,0,0,11.424,14.862l16.281,7.839a8.856,8.856,0,0,1,4.86,9.521l-5.932,32.945a8.871,8.871,0,0,1-1.62,3.725,8.83,8.83,0,0,1-15.08-1.568l-5.968-12.843a20.9,20.9,0,0,0-18.891-12.053H185.028a20.729,20.729,0,0,0-11.968,3.781L156.835,295.5a8.819,8.819,0,0,1-7.113,1.365l-24.108-5.723A132.353,132.353,0,0,1,124.04,270.768Zm199.618,71.838,4.23,38.767A131.176,131.176,0,0,1,256,402.728c-61.247,0-112.878-41.944-127.688-98.615l18.638,4.425a20.846,20.846,0,0,0,16.78-3.218l16.224-11.389a8.787,8.787,0,0,1,5.074-1.6h24.129a8.86,8.86,0,0,1,8.009,5.11l5.967,12.843a20.661,20.661,0,0,0,16.737,11.941,21.45,21.45,0,0,0,2.214.115,20.641,20.641,0,0,0,16.622-8.357,20.929,20.929,0,0,0,3.82-8.786l5.932-32.945a20.891,20.891,0,0,0-11.464-22.46l-16.281-7.839a8.867,8.867,0,0,1-4.843-6.3l-3.115-16.313a8.8,8.8,0,0,1,3.836-9.044l23.172-15.174a20.848,20.848,0,0,0,9.143-20.808L263.1,139a131.793,131.793,0,0,1,94.544,47.7l-10.2,7.264a30.423,30.423,0,0,0-11.81,17.217l-3.24,12.657a30.385,30.385,0,0,0,10.727,31.474,18.469,18.469,0,0,1,6.619,18.508l-6.547,29.2a18.352,18.352,0,0,1-5,9.04l-5.709,5.653A30.226,30.226,0,0,0,323.658,342.606Zm64.3-71.838a131.76,131.76,0,0,1-48.89,102.45L335.587,341.3a18.292,18.292,0,0,1,5.339-15.056l5.708-5.653a30.331,30.331,0,0,0,8.267-14.941l6.547-29.2a30.522,30.522,0,0,0-10.939-30.588,18.386,18.386,0,0,1-6.491-19.044l3.24-12.657a18.4,18.4,0,0,1,7.146-10.417l10.468-7.455A131.211,131.211,0,0,1,387.96,270.768Z"/></g><g transform="matrix(0.06588117778301239 0.015685996040701866 -0.015685996040701866 0.06588117778301239 145.10203552246094 32.053287506103516)" id="L1_26"><path d="M510.264,242.912l-80.29-117.926c-16.791-24.66-41.714-43.157-70.181-52.084c-28.468-8.925-59.49-7.973-87.355,2.686    l-73.313,28.041c-5.159,1.973-7.74,7.753-5.768,12.911c1.973,5.158,7.754,7.737,12.912,5.768l73.313-28.041    c49.182-18.808,104.226-1.55,133.861,41.975l49.315,72.43l-88.5-62.331c-18.548-13.064-42.442-16.492-63.917-9.168L44.058,227.986    c-9.268,3.166-19.456-1.783-22.706-11.022c-4.16-11.825,1.753-24.598,13.462-29.076l91.624-35.045    c5.159-1.973,7.74-7.753,5.768-12.911c-1.974-5.159-7.756-7.738-12.912-5.768L27.669,169.21    C5.766,177.587-5.295,201.478,2.485,223.6c6.874,19.543,28.418,30.004,48.028,23.314l266.285-90.812    c15.435-5.265,32.611-2.801,45.946,6.59l133.499,94.024c1.738,1.224,3.751,1.824,5.755,1.824c2.552,0,5.088-0.974,7.017-2.873    C512.457,252.276,512.984,246.907,510.264,242.912z"/><path d="M172.337,120.219c-1.86-1.87-4.44-2.93-7.069-2.93c-2.63,0-5.21,1.06-7.069,2.93c-1.86,1.86-2.93,4.431-2.93,7.069    c0,2.63,1.07,5.21,2.93,7.069c1.86,1.86,4.44,2.93,7.069,2.93c2.63,0,5.21-1.07,7.069-2.93c1.86-1.86,2.93-4.44,2.93-7.069    C175.267,124.648,174.197,122.079,172.337,120.219z"/><path d="M431.455,338.699l-0.379-0.117c-12.038-3.736-22.399-11.22-29.706-21.331c7.503-6.046,14.737-12.514,21.647-19.424    c3.905-3.905,3.905-10.236,0-14.142c-3.904-3.904-10.236-3.904-14.141,0c-39.216,39.217-89.308,63.603-143.474,70.352    c-0.363,0.025-0.721,0.067-1.073,0.129c-9.855,1.185-19.841,1.792-29.921,1.793c-0.005,0-0.01-0.001-0.016-0.001    c-0.006,0-0.01,0.001-0.016,0.001c-10.08,0-20.066-0.608-29.922-1.793c-0.352-0.063-0.709-0.105-1.073-0.129    c-54.166-6.749-104.258-31.135-143.474-70.352c-3.905-3.903-10.236-3.904-14.141,0c-3.905,3.905-3.905,10.236,0,14.142    c6.91,6.91,14.144,13.379,21.647,19.424c-7.306,10.111-17.665,17.596-29.693,21.327l-0.392,0.121    c-5.277,1.63-8.233,7.228-6.603,12.505c1.326,4.294,5.281,7.051,9.55,7.051c0.978,0,1.972-0.145,2.954-0.448l0.405-0.125    c16.108-4.999,29.982-14.988,39.806-28.477c3.42,2.357,6.887,4.631,10.402,6.818c-4.883,15.322-16.312,27.703-31.471,33.717    l-3.096,1.227c-5.134,2.036-7.644,7.848-5.609,12.981c1.556,3.925,5.318,6.315,9.297,6.315c1.227,0,2.474-0.228,3.684-0.707    l3.099-1.229c19.451-7.717,34.442-23.074,41.769-42.233c3.841,1.998,7.726,3.899,11.655,5.703    c-1.146,17.147-11.06,32.453-26.451,40.483l-0.596,0.311c-4.897,2.553-6.797,8.592-4.245,13.489    c1.783,3.421,5.267,5.379,8.874,5.379c1.557,0,3.138-0.365,4.614-1.135l0.599-0.312c19.636-10.245,32.918-28.919,36.399-50.301    c4.241,1.555,8.521,3.005,12.842,4.342c-0.572,15.861-6.722,30.936-17.489,42.682c-3.732,4.071-3.457,10.395,0.615,14.128    c1.92,1.76,4.34,2.628,6.753,2.628c2.706,0,5.403-1.092,7.374-3.243c12.958-14.137,20.776-31.984,22.453-50.916    c5.747,1.302,11.552,2.405,17.404,3.326c-1.296,15.361-6.01,30.299-13.852,43.645l-1.346,2.291    c-2.797,4.762-1.204,10.889,3.558,13.687c1.591,0.934,3.334,1.379,5.056,1.379c3.43,0,6.768-1.767,8.631-4.938l1.345-2.289    c9.242-15.728,14.846-33.31,16.476-51.402c4.052,0.332,8.122,0.571,12.208,0.721v59.408c0,5.522,4.477,9.999,9.999,9.999    s9.999-4.478,9.999-9.999v-59.408c4.087-0.15,8.156-0.389,12.208-0.721c1.63,18.09,7.233,35.674,16.475,51.4l1.346,2.291    c1.863,3.172,5.202,4.938,8.631,4.938c1.721,0,3.465-0.445,5.056-1.379c4.762-2.798,6.354-8.925,3.558-13.687l-1.347-2.293    c-7.841-13.344-12.555-28.284-13.851-43.643c5.852-0.922,11.657-2.024,17.404-3.326c1.676,18.931,9.495,36.779,22.453,50.916    c1.972,2.151,4.668,3.243,7.374,3.243c2.414,0,4.834-0.869,6.753-2.628c4.071-3.732,4.347-10.057,0.615-14.128    c-10.766-11.746-16.917-26.823-17.489-42.682c4.321-1.337,8.601-2.786,12.842-4.342c3.481,21.383,16.764,40.057,36.402,50.302    l0.596,0.311c1.477,0.77,3.057,1.135,4.614,1.135c3.608,0,7.091-1.959,8.874-5.379c2.553-4.897,0.653-10.937-4.245-13.489    l-0.593-0.31c-15.394-8.03-25.308-23.337-26.454-40.484c3.93-1.804,7.815-3.705,11.655-5.703    c7.326,19.159,22.317,34.516,41.77,42.234l3.098,1.229c1.21,0.479,2.457,0.707,3.684,0.707c3.979,0,7.741-2.393,9.297-6.315    c2.036-5.134-0.475-10.945-5.609-12.981l-3.096-1.228c-15.16-6.015-26.59-18.396-31.472-33.718    c3.515-2.187,6.982-4.461,10.402-6.818c9.824,13.49,23.699,23.479,39.819,28.481l0.392,0.121c0.983,0.304,1.977,0.448,2.954,0.448    c4.27,0,8.224-2.758,9.55-7.051C439.688,345.927,436.733,340.329,431.455,338.699z"/></g><path d="m5.1 15.286-4.865 13.7c-.43886562 1.196255-.23652956 2.5337854.53653086 3.5467052.77306042 1.0129199 2.00981099 1.5609852 3.27946914 1.4532948l-1.051 3.014c-.32490534.9189675-.18310043 1.938499.38025622 2.7339197.56335666.7954206 1.4780323 1.2675664 2.45274378 1.2660803h1.167v15.359c-.02500859 1.2504296.61897875 2.4192161 1.68937822 3.0660889 1.07039947.6468729 2.40459198.6735567 3.49999998.07 1.0954081-.6035567 1.7856132-1.7456593 1.8106218-2.9960889v-15.499h2v15.359c-.0292535 1.9623878 1.523212 3.5843468 3.485 3.641 1.9367994.0033181 3.5100353-1.5632041 3.515-3.5v-15.5h1.17c.974182.0005108 1.8879559-.4720379 2.4506087-1.2673068.5626528-.795269.7041188-1.8142255.3793913-2.7326932l-3.068-8.674c1.219-.1.458.129 13.864-6.185 1.0968609-.4863182 1.8904113-1.473565 2.1295369-2.649332.2391256-1.1757671-.1057664-2.3945484-.9255369-3.270668v-4.121l8.215 3.735c.6293886.2644506 1.3500227.191008 1.9131233-.1949737.5631005-.3859817.8915185-1.03162.8718767-1.7140263v-11.852c.0189434-.68205544-.3097601-1.3270598-.8727436-1.71255695-.5629835-.38549714-1.2832011-.45873069-1.9122564-.19444305l-8.431 3.833h-4.784c-1.1045695 0-2 .8954305-2 2v4c.003578.7109378.3842968 1.3665356 1 1.722v4.426l-6.283 2.98-3.037-4.486c-.9047754-1.339021-2.3137445-2.2540391-3.905-2.536 2.0886839-1.9514964 2.7798276-4.97750688 1.7455089-7.64230018-1.0343188-2.6647933-3.5859665-4.43213949-6.4442799-4.46349752-2.8583134-.03135802-5.44812078 1.67958222-6.54065344 4.32104224-1.09253266 2.64146001-.46794285 5.68190516 1.57742444 7.67875546h-.323c-2.09650411.0073307-3.96720568 1.3180184-4.69 3.286zm6.9 41.214c-.001769.4235473-.1815764.8268254-.4954518 1.1112154-.3138753.2843901-.7328795.4236717-1.1545482.3837846-.79874897-.1258577-1.3780484-.8278828-1.35-1.636v-15.359h3zm9 0c-.001769.4235473-.1815764.8268254-.4954518 1.1112154-.3138753.2843901-.7328795.4236717-1.1545482.3837846-.798749-.1258577-1.3780484-.8278828-1.35-1.636v-15.359h3zm16-41.416c-.6676747-.1330662-1.358956-.0822571-2 .147v-3.231h2zm11-13.01-.027 11.906-7.973-3.624v-4.708zm-14 3.926h4v4h-4zm-24 1c0-2.76142375 2.2385763-5 5-5s5 2.23857625 5 5-2.2385763 5-5 5c-2.7600532-.0033061-4.9966939-2.23994685-5-5zm8.708 7c1.3285223-.001777 2.5705618.658619 3.312 1.761 4.408 6.511 3.265 4.827 4.322 6.372.3112125.4578441.9346559.5767125 1.3925.2655s.5767125-.9346559.2655-1.3925l-.141-.2 7.7-3.65c.5676933-.2666224 1.2350868-.2061078 1.7455649.1582756.510478.3643833.7845604.9759019.7168613 1.5994241-.0676992.6235222-.4666393 1.1619671-1.0434262 1.4083003-1.211.544 4.349-2.049-12.232 5.761-.4625644.2126832-.9732415.2989463-1.48.25l-1.942-5.654c-.1161113-.3379732-.4037092-.5883288-.7544583-.65676-.350749-.0684313-.7113622.055458-.946.325-.2346377.2695419-.307653.6437868-.1915417.98176 3.666 10.669 1.59 4.738 5.693 16.337.1092347.3081879.0609021.6503128-.1294303.9161803-.1903325.2658675-.4986211.421892-.8255697.4178197h-18.34c-.32669232.0014957-.63351707-.1566828-.82179966-.4236655-.18828259-.2669828-.23428032-.6091028-.12320034-.9163345 2.608-7.471.94-2.7 6.059-17.33.1306341-.3402356.0658233-.724599-.1691559-1.0031853-.2349792-.2785864-.6029124-.4072753-.96030269-.335877-.35739034.0713983-.64763696.3315762-.75754141.6790623l-4.138 11.83c-.57446272.5643293-1.46418821.6529697-2.13869879.2130715s-.95211624-1.2898416-.66730121-2.0430715l4.866-13.7c.42373889-1.1868557 1.55078734-1.9767117 2.811-1.97z" transform="matrix(0.8069107532501221 -0.23054592311382294 0.23054592311382294 0.8069107532501221 -17.813785552978516 94.32571411132812)" id="L1_27"/></defs><g fi:class="KUsePattern"><pattern id="pattern_L1_0" width="350" height="350" patternUnits="userSpaceOnUse"><use xlink:href="#L1_0" x="-350" y="-350"/><use xlink:href="#L1_0" x="0" y="-350"/><use xlink:href="#L1_0" x="350" y="-350"/><use xlink:href="#L1_0" x="-350" y="0"/><use xlink:href="#L1_0" x="0" y="0"/><use xlink:href="#L1_0" x="350" y="0"/><use xlink:href="#L1_0" x="-350" y="350"/><use xlink:href="#L1_0" x="0" y="350"/><use xlink:href="#L1_0" x="350" y="350"/></pattern><rect x="0" y="0" width="100%" height="100%" fill="url(#pattern_L1_0)"/></g><g fi:class="KUsePattern"><pattern id="pattern_L1_2" width="350" height="350" patternUnits="userSpaceOnUse"><use xlink:href="#L1_2" x="-350" y="-350"/><use xlink:href="#L1_2" x="0" y="-350"/><use xlink:href="#L1_2" x="350" y="-350"/><use xlink:href="#L1_2" x="-350" y="0"/><use xlink:href="#L1_2" x="0" y="0"/><use xlink:href="#L1_2" x="350" y="0"/><use xlink:href="#L1_2" x="-350" y="350"/><use xlink:href="#L1_2" x="0" y="350"/><use xlink:href="#L1_2" x="350" y="350"/></pattern><rect x="0" y="0" width="100%" height="100%" fill="url(#pattern_L1_2)"/></g><g fi:class="KUsePattern"><pattern id="pattern_L1_12" width="350" height="350" patternUnits="userSpaceOnUse"><use xlink:href="#L1_12" x="-350" y="-350"/><use xlink:href="#L1_12" x="0" y="-350"/><use xlink:href="#L1_12" x="350" y="-350"/><use xlink:href="#L1_12" x="-350" y="0"/><use xlink:href="#L1_12" x="0" y="0"/><use xlink:href="#L1_12" x="350" y="0"/><use xlink:href="#L1_12" x="-350" y="350"/><use xlink:href="#L1_12" x="0" y="350"/><use xlink:href="#L1_12" x="350" y="350"/></pattern><rect x="0" y="0" width="100%" height="100%" fill="url(#pattern_L1_12)"/></g><g fi:class="KUsePattern"><pattern id="pattern_L1_13" width="350" height="350" patternUnits="userSpaceOnUse"><use xlink:href="#L1_13" x="-350" y="-350"/><use xlink:href="#L1_13" x="0" y="-350"/><use xlink:href="#L1_13" x="350" y="-350"/><use xlink:href="#L1_13" x="-350" y="0"/><use xlink:href="#L1_13" x="0" y="0"/><use xlink:href="#L1_13" x="350" y="0"/><use xlink:href="#L1_13" x="-350" y="350"/><use xlink:href="#L1_13" x="0" y="350"/><use xlink:href="#L1_13" x="350" y="350"/></pattern><rect x="0" y="0" width="100%" height="100%" fill="url(#pattern_L1_13)"/></g><g fi:class="KUsePattern"><pattern id="pattern_L1_16" width="350" height="350" patternUnits="userSpaceOnUse"><use xlink:href="#L1_16" x="-350" y="-350"/><use xlink:href="#L1_16" x="0" y="-350"/><use xlink:href="#L1_16" x="350" y="-350"/><use xlink:href="#L1_16" x="-350" y="0"/><use xlink:href="#L1_16" x="0" y="0"/><use xlink:href="#L1_16" x="350" y="0"/><use xlink:href="#L1_16" x="-350" y="350"/><use xlink:href="#L1_16" x="0" y="350"/><use xlink:href="#L1_16" x="350" y="350"/></pattern><rect x="0" y="0" width="100%" height="100%" fill="url(#pattern_L1_16)"/></g><g fi:class="KUsePattern"><pattern id="pattern_L1_17" width="350" height="350" patternUnits="userSpaceOnUse"><use xlink:href="#L1_17" x="-350" y="-350"/><use xlink:href="#L1_17" x="0" y="-350"/><use xlink:href="#L1_17" x="350" y="-350"/><use xlink:href="#L1_17" x="-350" y="0"/><use xlink:href="#L1_17" x="0" y="0"/><use xlink:href="#L1_17" x="350" y="0"/><use xlink:href="#L1_17" x="-350" y="350"/><use xlink:href="#L1_17" x="0" y="350"/><use xlink:href="#L1_17" x="350" y="350"/></pattern><rect x="0" y="0" width="100%" height="100%" fill="url(#pattern_L1_17)"/></g><g fi:class="KUsePattern"><pattern id="pattern_L1_18" width="350" height="350" patternUnits="userSpaceOnUse"><use xlink:href="#L1_18" x="-350" y="-350"/><use xlink:href="#L1_18" x="0" y="-350"/><use xlink:href="#L1_18" x="350" y="-350"/><use xlink:href="#L1_18" x="-350" y="0"/><use xlink:href="#L1_18" x="0" y="0"/><use xlink:href="#L1_18" x="350" y="0"/><use xlink:href="#L1_18" x="-350" y="350"/><use xlink:href="#L1_18" x="0" y="350"/><use xlink:href="#L1_18" x="350" y="350"/></pattern><rect x="0" y="0" width="100%" height="100%" fill="url(#pattern_L1_18)"/></g><g fi:class="KUsePattern"><pattern id="pattern_L1_20" width="350" height="350" patternUnits="userSpaceOnUse"><use xlink:href="#L1_20" x="-350" y="-350"/><use xlink:href="#L1_20" x="0" y="-350"/><use xlink:href="#L1_20" x="350" y="-350"/><use xlink:href="#L1_20" x="-350" y="0"/><use xlink:href="#L1_20" x="0" y="0"/><use xlink:href="#L1_20" x="350" y="0"/><use xlink:href="#L1_20" x="-350" y="350"/><use xlink:href="#L1_20" x="0" y="350"/><use xlink:href="#L1_20" x="350" y="350"/></pattern><rect x="0" y="0" width="100%" height="100%" fill="url(#pattern_L1_20)"/></g><g fi:class="KUsePattern"><pattern id="pattern_L1_24" width="350" height="350" patternUnits="userSpaceOnUse"><use xlink:href="#L1_24" x="-350" y="-350"/><use xlink:href="#L1_24" x="0" y="-350"/><use xlink:href="#L1_24" x="350" y="-350"/><use xlink:href="#L1_24" x="-350" y="0"/><use xlink:href="#L1_24" x="0" y="0"/><use xlink:href="#L1_24" x="350" y="0"/><use xlink:href="#L1_24" x="-350" y="350"/><use xlink:href="#L1_24" x="0" y="350"/><use xlink:href="#L1_24" x="350" y="350"/></pattern><rect x="0" y="0" width="100%" height="100%" fill="url(#pattern_L1_24)"/></g><g fi:class="KUsePattern"><pattern id="pattern_L1_25" width="350" height="350" patternUnits="userSpaceOnUse"><use xlink:href="#L1_25" x="-350" y="-350"/><use xlink:href="#L1_25" x="0" y="-350"/><use xlink:href="#L1_25" x="350" y="-350"/><use xlink:href="#L1_25" x="-350" y="0"/><use xlink:href="#L1_25" x="0" y="0"/><use xlink:href="#L1_25" x="350" y="0"/><use xlink:href="#L1_25" x="-350" y="350"/><use xlink:href="#L1_25" x="0" y="350"/><use xlink:href="#L1_25" x="350" y="350"/></pattern><rect x="0" y="0" width="100%" height="100%" fill="url(#pattern_L1_25)"/></g><g fi:class="KUsePattern"><pattern id="pattern_L1_26" width="350" height="350" patternUnits="userSpaceOnUse"><use xlink:href="#L1_26" x="-350" y="-350"/><use xlink:href="#L1_26" x="0" y="-350"/><use xlink:href="#L1_26" x="350" y="-350"/><use xlink:href="#L1_26" x="-350" y="0"/><use xlink:href="#L1_26" x="0" y="0"/><use xlink:href="#L1_26" x="350" y="0"/><use xlink:href="#L1_26" x="-350" y="350"/><use xlink:href="#L1_26" x="0" y="350"/><use xlink:href="#L1_26" x="350" y="350"/></pattern><rect x="0" y="0" width="100%" height="100%" fill="url(#pattern_L1_26)"/></g><g fi:class="KUsePattern"><pattern id="pattern_L1_27" width="350" height="350" patternUnits="userSpaceOnUse"><use xlink:href="#L1_27" x="-350" y="-350"/><use xlink:href="#L1_27" x="0" y="-350"/><use xlink:href="#L1_27" x="350" y="-350"/><use xlink:href="#L1_27" x="-350" y="0"/><use xlink:href="#L1_27" x="0" y="0"/><use xlink:href="#L1_27" x="350" y="0"/><use xlink:href="#L1_27" x="-350" y="350"/><use xlink:href="#L1_27" x="0" y="350"/><use xlink:href="#L1_27" x="350" y="350"/></pattern><rect x="0" y="0" width="100%" height="100%" fill="url(#pattern_L1_27)"/></g></svg>